<svg width="19" height="18" viewBox="0 0 19 18" fill="none" xmlns="http://www.w3.org/2000/svg">
<path d="M16.8695 5.15866L13.5526 2.0171C13.4424 1.9126 13.3114 1.82971 13.1673 1.77316C13.0232 1.71661 12.8688 1.6875 12.7128 1.6875C12.5569 1.6875 12.4024 1.71661 12.2583 1.77316C12.1142 1.82971 11.9833 1.9126 11.8731 2.0171L2.72114 10.6873C2.61039 10.7914 2.52258 10.9153 2.46283 11.0518C2.40307 11.1884 2.37255 11.3348 2.37305 11.4826V14.6248C2.37305 14.9232 2.49816 15.2093 2.72086 15.4203C2.94356 15.6313 3.24561 15.7498 3.56055 15.7498H16.0293C16.1868 15.7498 16.3378 15.6906 16.4491 15.5851C16.5605 15.4796 16.6231 15.3365 16.6231 15.1873C16.6231 15.0381 16.5605 14.8951 16.4491 14.7896C16.3378 14.6841 16.1868 14.6248 16.0293 14.6248H8.55696L16.8695 6.74983C16.9798 6.64536 17.0673 6.52133 17.1269 6.38482C17.1866 6.24831 17.2174 6.102 17.2174 5.95424C17.2174 5.80649 17.1866 5.66017 17.1269 5.52367C17.0673 5.38716 16.9798 5.26313 16.8695 5.15866ZM10.0918 5.29506L11.3305 6.46858L5.04493 12.4233L3.80622 11.2498L10.0918 5.29506ZM3.56055 14.6248V12.6076L5.68989 14.6248H3.56055ZM7.12305 14.3921L5.88508 13.2186L12.1699 7.26381L13.4086 8.43733L7.12305 14.3921ZM14.2481 7.6421L10.932 4.49983L12.7132 2.81233L16.0293 5.9546L14.2481 7.6421Z" fill="black"/>
</svg>
