<svg width="20" height="20" viewBox="0 0 20 20" fill="none" xmlns="http://www.w3.org/2000/svg">
<g clip-path="url(#clip0_4349_3815)">
<path d="M16.875 3.125H3.125C2.79348 3.125 2.47554 3.2567 2.24112 3.49112C2.0067 3.72554 1.875 4.04348 1.875 4.375V15.625C1.875 15.9565 2.0067 16.2745 2.24112 16.5089C2.47554 16.7433 2.79348 16.875 3.125 16.875H16.875C17.2065 16.875 17.5245 16.7433 17.7589 16.5089C17.9933 16.2745 18.125 15.9565 18.125 15.625V4.375C18.125 4.04348 17.9933 3.72554 17.7589 3.49112C17.5245 3.2567 17.2065 3.125 16.875 3.125ZM16.875 4.375V12.4023L14.8383 10.3664C14.7222 10.2503 14.5844 10.1582 14.4327 10.0954C14.281 10.0325 14.1185 10.0002 13.9543 10.0002C13.7901 10.0002 13.6276 10.0325 13.4759 10.0954C13.3242 10.1582 13.1864 10.2503 13.0703 10.3664L11.5078 11.9289L8.07031 8.49141C7.83592 8.25716 7.5181 8.12558 7.18672 8.12558C6.85534 8.12558 6.53752 8.25716 6.30312 8.49141L3.125 11.6695V4.375H16.875ZM3.125 13.4375L7.1875 9.375L13.4375 15.625H3.125V13.4375ZM16.875 15.625H15.2055L12.393 12.8125L13.9555 11.25L16.875 14.1703V15.625ZM11.25 7.8125C11.25 7.62708 11.305 7.44582 11.408 7.29165C11.511 7.13748 11.6574 7.01732 11.8287 6.94636C12 6.87541 12.1885 6.85684 12.3704 6.89301C12.5523 6.92919 12.7193 7.01848 12.8504 7.14959C12.9815 7.2807 13.0708 7.44775 13.107 7.6296C13.1432 7.81146 13.1246 7.99996 13.0536 8.17127C12.9827 8.34257 12.8625 8.48899 12.7083 8.592C12.5542 8.69502 12.3729 8.75 12.1875 8.75C11.9389 8.75 11.7004 8.65123 11.5246 8.47541C11.3488 8.2996 11.25 8.06114 11.25 7.8125Z" fill="black"/>
<mask id="path-2-outside-1_4349_3815" maskUnits="userSpaceOnUse" x="12.2715" y="0.5" width="9" height="9" fill="black">
<rect fill="white" x="12.2715" y="0.5" width="9" height="9"/>
<path d="M16.1233 7.06321V2.06717H17.2568V7.06321H16.1233ZM14.192 5.13194V3.99844H19.188V5.13194H14.192Z"/>
</mask>
<path d="M16.1233 7.06321V2.06717H17.2568V7.06321H16.1233ZM14.192 5.13194V3.99844H19.188V5.13194H14.192Z" fill="black"/>
<path d="M16.1233 7.06321H14.6527V8.5338H16.1233V7.06321ZM16.1233 2.06717V0.596582H14.6527V2.06717H16.1233ZM17.2568 2.06717H18.7274V0.596582H17.2568V2.06717ZM17.2568 7.06321V8.5338H18.7274V7.06321H17.2568ZM14.192 5.13194H12.7214V6.60252H14.192V5.13194ZM14.192 3.99844V2.52785H12.7214V3.99844H14.192ZM19.188 3.99844H20.6586V2.52785H19.188V3.99844ZM19.188 5.13194V6.60252H20.6586V5.13194H19.188ZM16.1233 7.06321H17.5939V2.06717H16.1233H14.6527V7.06321H16.1233ZM16.1233 2.06717V3.53776H17.2568V2.06717V0.596582H16.1233V2.06717ZM17.2568 2.06717H15.7862V7.06321H17.2568H18.7274V2.06717H17.2568ZM17.2568 7.06321V5.59262H16.1233V7.06321V8.5338H17.2568V7.06321ZM14.192 5.13194H15.6626V3.99844H14.192H12.7214V5.13194H14.192ZM14.192 3.99844V5.46903H19.188V3.99844V2.52785H14.192V3.99844ZM19.188 3.99844H17.7174V5.13194H19.188H20.6586V3.99844H19.188ZM19.188 5.13194V3.66135H14.192V5.13194V6.60252H19.188V5.13194Z" fill="white" mask="url(#path-2-outside-1_4349_3815)"/>
</g>
<defs>
<clipPath id="clip0_4349_3815">
<rect width="20" height="20" fill="white"/>
</clipPath>
</defs>
</svg>
