<svg width="7" height="7" viewBox="0 0 7 7" fill="none" xmlns="http://www.w3.org/2000/svg">
<path d="M6.36305 5.70672C6.45024 5.79391 6.49923 5.91216 6.49923 6.03547C6.49923 6.15877 6.45024 6.27703 6.36305 6.36422C6.27586 6.4514 6.15761 6.50039 6.03431 6.50039C5.911 6.50039 5.79275 6.4514 5.70556 6.36422L3.25 3.90788L0.793669 6.36344C0.706479 6.45063 0.588225 6.49961 0.464921 6.49961C0.341616 6.49961 0.223362 6.45063 0.136172 6.36344C0.0489826 6.27625 1.83738e-09 6.158 0 6.03469C-1.83738e-09 5.91139 0.0489826 5.79313 0.136172 5.70595L2.5925 3.25039L0.136946 0.794056C0.049756 0.706866 0.000773542 0.588612 0.000773543 0.465307C0.000773545 0.342003 0.049756 0.223748 0.136946 0.136559C0.224135 0.0493693 0.342389 0.000386699 0.465694 0.000386698C0.588999 0.000386697 0.707253 0.0493693 0.794443 0.136559L3.25 2.59289L5.70633 0.136172C5.79352 0.0489825 5.91177 -2.05426e-09 6.03508 0C6.15838 2.05426e-09 6.27664 0.0489825 6.36383 0.136172C6.45102 0.223362 6.5 0.341616 6.5 0.46492C6.5 0.588225 6.45102 0.70648 6.36383 0.793669L3.9075 3.25039L6.36305 5.70672Z" fill="#7D7D7D"/>
</svg>
